<svg xmlns="http://www.w3.org/2000/svg" viewBox="0 0 700 670" width="700" height="670" style="width: 100%; height: 100%; transform: translate3d(0px, 0px, 0px);" preserveAspectRatio="xMidYMid meet"><defs><clipPath id="__lottie_element_13"><rect width="700" height="670" x="0" y="0"></rect></clipPath></defs><g clip-path="url(#__lottie_element_13)"><g style="display: block;" transform="matrix(1,0,0,1,110,98.5)" opacity="1"><g opacity="1" transform="matrix(1,0,0,1,210.61000061035156,208.6300048828125)"><path fill="rgb(201,219,44)" fill-opacity="1" d=" M16.940000534057617,-208.6300048828125 C16.940000534057617,-208.6300048828125 35.84000015258789,-208.6300048828125 35.84000015258789,-208.6300048828125 C65.80999755859375,-207.35000610351562 95.81999969482422,-201.2100067138672 122.98999786376953,-188.24000549316406 C159.24000549316406,-171.30999755859375 189.4600067138672,-142.82000732421875 210.61000061035156,-109.05000305175781 C184.19000244140625,-94.98999786376953 157.97000122070312,-80.54000091552734 131.6300048828125,-66.31999969482422 C116.4800033569336,-89.72000122070312 93.61000061035156,-108.12999725341797 67.2699966430664,-117.36000061035156 C39.599998474121094,-127.33000183105469 8.739999771118164,-126.23999786376953 -19.040000915527344,-117.30000305175781 C-48.15999984741211,-107.83000183105469 -73.6500015258789,-87.8499984741211 -89.83999633789062,-61.869998931884766 C-107.3499984741211,-34.33000183105469 -114.47000122070312,-0.9800000190734863 -112.62999725341797,31.399999618530273 C-111.16999816894531,57.439998626708984 -103.61000061035156,83.31999969482422 -89.51000213623047,105.36000061035156 C-92.23999786376953,105.36000061035156 -94.97000122070312,105.37000274658203 -97.70999908447266,105.37999725341797 C-97.88999938964844,112.26000213623047 -97.8499984741211,119.16000366210938 -97.73999786376953,126.05000305175781 C-90.75,126.04000091552734 -83.76000213623047,126.06999969482422 -76.7699966430664,126.02999877929688 C-76.97000122070312,124.51000213623047 -77.19999694824219,122.98999786376953 -77.45999908447266,121.48999786376953 C-57.150001525878906,144.97000122070312 -28.31999969482422,160.63999938964844 2.309999942779541,165.38999938964844 C23.959999084472656,168.99000549316406 46.560001373291016,167.77999877929688 67.38999938964844,160.64999389648438 C67.37999725341797,162.88999938964844 67.38999938964844,165.1300048828125 67.38999938964844,167.3699951171875 C60.59000015258789,167.3699951171875 53.790000915527344,167.36000061035156 46.9900016784668,167.3800048828125 C46.93000030517578,174.27000427246094 46.959999084472656,181.16000366210938 46.970001220703125,188.0500030517578 C53.77000045776367,188.0399932861328 60.58000183105469,188.0500030517578 67.38999938964844,188.0500030517578 C67.38999938964844,188.0500030517578 67.38999938964844,208.5800018310547 67.38999938964844,208.5800018310547 C60.58000183105469,208.60000610351562 53.779998779296875,208.57000732421875 46.970001220703125,208.6199951171875 C46.88999938964844,201.77999877929688 46.93000030517578,194.9499969482422 46.91999816894531,188.1199951171875 C40.0099983215332,188.1199951171875 33.099998474121094,188.11000061035156 26.200000762939453,188.1300048828125 C26.18000030517578,194.9600067138672 26.170000076293945,201.7899932861328 26.200000762939453,208.6300048828125 C19.260000228881836,208.55999755859375 12.329999923706055,208.60000610351562 5.389999866485596,208.58999633789062 C5.389999866485596,208.58999633789062 5.389999866485596,167.3699951171875 5.389999866485596,167.3699951171875 C5.389999866485596,167.3699951171875 -15.010000228881836,167.3699951171875 -15.010000228881836,167.3699951171875 C-15.010000228881836,167.3699951171875 -15.010000228881836,188.1300048828125 -15.010000228881836,188.1300048828125 C-15.010000228881836,188.1300048828125 -56.61000061035156,188.1300048828125 -56.61000061035156,188.1300048828125 C-56.61000061035156,188.1300048828125 -56.59000015258789,160.25 -56.630001068115234,146.60000610351562 C-63.43000030517578,146.58999633789062 -70.2300033569336,146.60000610351562 -77.02999877929688,146.58999633789062 C-77.04000091552734,153.50999450683594 -77.05000305175781,160.42999267578125 -77.02999877929688,167.35000610351562 C-83.91999816894531,167.38999938964844 -90.81999969482422,167.36000061035156 -97.70999908447266,167.3699951171875 C-97.91000366210938,174.22999572753906 -97.77999877929688,181.27999877929688 -97.81999969482422,188.1300048828125 C-104.75,188.10000610351562 -111.68000030517578,188.14999389648438 -118.61000061035156,188.0800018310547 C-118.61000061035156,188.0800018310547 -118.61000061035156,167.3699951171875 -118.61000061035156,167.3699951171875 C-125.41000366210938,167.3699951171875 -132.2100067138672,167.36000061035156 -139.00999450683594,167.3800048828125 C-139.07000732421875,174.25 -139.00999450683594,181.1300048828125 -139.07000732421875,188.00999450683594 C-132.25,188.08999633789062 -125.43000030517578,188.00999450683594 -118.61000061035156,188.0800018310547 C-118.61000061035156,194.5500030517578 -118.5999984741211,201.02000427246094 -118.62999725341797,207.49000549316406 C-143.2899932861328,189.97999572753906 -164.3000030517578,167.2899932861328 -179.57000732421875,141.16000366210938 C-198.24000549316406,109.45999908447266 -208.1699981689453,73 -210.0800018310547,36.36000061035156 C-210.38999938964844,31.860000610351562 -210.2899932861328,27.329999923706055 -210.61000061035156,22.829999923706055 C-210.61000061035156,22.829999923706055 -210.61000061035156,19.899999618530273 -210.61000061035156,19.899999618530273 C-210.19000244140625,-16.110000610351562 -202.9600067138672,-52.36000061035156 -186.83999633789062,-84.7300033569336 C-168.72000122070312,-121.75 -139.4199981689453,-153.02999877929688 -104.0199966430664,-174.07000732421875 C-67.6500015258789,-196.02000427246094 -25.350000381469727,-207.02999877929688 16.940000534057617,-208.6300048828125z M-180.61000061035156,64.12000274658203 C-180.61000061035156,64.12000274658203 -180.61000061035156,84.56999969482422 -180.61000061035156,84.56999969482422 C-173.8000030517578,84.55999755859375 -167,84.61000061035156 -160.19000244140625,84.54000091552734 C-160.17999267578125,77.73999786376953 -160.16000366210938,70.94999694824219 -160.1999969482422,64.16000366210938 C-167,64.08000183105469 -173.8000030517578,64.12999725341797 -180.61000061035156,64.12000274658203z"></path></g><g opacity="1" transform="matrix(1,0,0,1,205.78500366210938,438.7349853515625)"><path fill="rgb(201,219,44)" fill-opacity="1" d=" M-30.9950008392334,-21.524999618530273 C-24.065000534057617,-21.524999618530273 -17.135000228881836,-21.53499984741211 -10.204999923706055,-21.524999618530273 C-10.225000381469727,-14.595000267028809 -10.21500015258789,-7.664999961853027 -10.21500015258789,-0.7350000143051147 C3.5250000953674316,-0.7250000238418579 17.264999389648438,-0.7450000047683716 31.0049991607666,-0.7250000238418579 C31.0049991607666,6.695000171661377 31.014999389648438,14.114999771118164 30.9950008392334,21.53499984741211 C17.19499969482422,21.415000915527344 3.375,20.55500030517578 -10.265000343322754,18.395000457763672 C-10.234999656677246,12.015000343322754 -10.244999885559082,5.644999980926514 -10.255000114440918,-0.7350000143051147 C-10.255000114440918,-0.7350000143051147 -31.0049991607666,-0.7350000143051147 -31.0049991607666,-0.7350000143051147 C-31.0049991607666,-7.664999961853027 -31.014999389648438,-14.604999542236328 -30.9950008392334,-21.524999618530273z"></path></g><g opacity="1" transform="matrix(1,0,0,1,307.6000061035156,335.6000061035156)"><path fill="rgb(6,170,223)" fill-opacity="1" d=" M-50.33000183105469,-124.66000366210938 C25.440000534057617,-124.6500015258789 101.19999694824219,-124.66999816894531 176.97000122070312,-124.6500015258789 C176.9499969482422,-48.869998931884766 177,26.920000076293945 176.94000244140625,102.70999908447266 C149.3300018310547,102.69000244140625 121.72000122070312,102.69999694824219 94.11000061035156,102.69000244140625 C94.08999633789062,80.80999755859375 94.12000274658203,58.91999816894531 94.08999633789062,37.040000915527344 C75.62000274658203,69.12000274658203 46.02000045776367,94.25 11.979999542236328,108.52999877929688 C11.970000267028809,106.48999786376953 11.970000267028809,104.44999694824219 11.979999542236328,102.41999816894531 C4.989999771118164,102.37000274658203 -8.979999542236328,102.38099670410156 -8.979999542236328,102.38099670410156 C-8.979999542236328,102.38099670410156 -8.861000061035156,115.99600219726562 -8.861000061035156,115.99600219726562 C-8.861000061035156,115.99600219726562 -9.819999694824219,116.25 -9.819999694824219,116.25 C-29.59000015258789,122.05999755859375 -50.22999954223633,124.5999984741211 -70.81999969482422,124.66999816894531 C-70.80000305175781,117.25 -70.80999755859375,109.83000183105469 -70.80999755859375,102.41000366210938 C-84.55000305175781,102.38999938964844 -98.29000091552734,102.41000366210938 -112.02999877929688,102.4000015258789 C-112.02999877929688,95.47000122070312 -112.04000091552734,88.54000091552734 -112.0199966430664,81.61000061035156 C-118.94999694824219,81.5999984741211 -125.87999725341797,81.61000061035156 -132.80999755859375,81.61000061035156 C-132.8300018310547,88.52999877929688 -132.82000732421875,95.47000122070312 -132.82000732421875,102.4000015258789 C-132.82000732421875,102.4000015258789 -112.06999969482422,102.4000015258789 -112.06999969482422,102.4000015258789 C-112.05999755859375,108.77999877929688 -112.05000305175781,115.1500015258789 -112.08000183105469,121.52999877929688 C-133.33999633789062,118.32599639892578 -154.1929931640625,112.41899871826172 -173.94400024414062,103.91200256347656 C-174.96499633789062,103.47100067138672 -175.98399353027344,103.02400207519531 -177,102.56999969482422 C-176.25,102.5 -174.75,102.3499984741211 -174,102.27999877929688 C-174.05999755859375,95.38999938964844 -174.02999877929688,88.5 -174.02999877929688,81.62000274658203 C-167.22000122070312,81.62000274658203 -160.41000366210938,81.63099670410156 -153.60000610351562,81.61000061035156 C-153.60000610351562,74.86000061035156 -153.61000061035156,67.91000366210938 -153.60000610351562,61.15999984741211 C-139.47999572753906,61.25 -112,61.15999984741211 -112,61.15999984741211 C-112,61.15999984741211 -112,40.400001525878906 -112,40.400001525878906 C-112,40.400001525878906 -91.5999984741211,40.400001525878906 -91.5999984741211,40.400001525878906 C-91.5999984741211,40.400001525878906 -91.5999984741211,81.62000274658203 -91.5999984741211,81.62000274658203 C-84.66000366210938,81.63099670410156 -77.7300033569336,81.58999633789062 -70.79000091552734,81.66000366210938 C-70.81999969482422,74.81999969482422 -70.80999755859375,67.98999786376953 -70.79000091552734,61.15999984741211 C-63.88999938964844,61.13999938964844 -56.97999954223633,61.150001525878906 -50.06999969482422,61.150001525878906 C-50.060001373291016,67.9800033569336 -50.099998474121094,74.80999755859375 -50.02000045776367,81.6500015258789 C-43.209999084472656,81.5999984741211 -36.40999984741211,81.63099670410156 -29.600000381469727,81.61000061035156 C-29.600000381469727,81.61000061035156 -29.600000381469727,61.08000183105469 -29.600000381469727,61.08000183105469 C-36.40999984741211,61.08000183105469 -43.220001220703125,61.06999969482422 -50.02000045776367,61.08000183105469 C-50.029998779296875,54.189998626708984 -50.060001373291016,47.29999923706055 -50,40.40999984741211 C-43.20000076293945,40.38999938964844 -36.400001525878906,40.400001525878906 -29.600000381469727,40.400001525878906 C-29.600000381469727,38.15999984741211 -29.610000610351562,35.91999816894531 -29.600000381469727,33.68000030517578 C-20.760000228881836,30.670000076293945 -12.270000457763672,26.600000381469727 -4.449999809265137,21.489999771118164 C18.559999465942383,6.739999771118164 34.880001068115234,-16.700000762939453 44.33000183105469,-42.04999923706055 C12.779999732971191,-42.060001373291016 -18.780000686645508,-42.11000061035156 -50.34000015258789,-42.029998779296875 C-50.310001373291016,-69.56999969482422 -50.33000183105469,-97.12000274658203 -50.33000183105469,-124.66000366210938z"></path></g><g opacity="1" transform="matrix(1,0,0,1,40.224998474121094,282.9750061035156)"><path fill="rgb(6,170,223)" fill-opacity="1" d=" M-10.225000381469727,-10.225000381469727 C-3.4149999618530273,-10.21500015258789 3.384999990463257,-10.265000343322754 10.1850004196167,-10.1850004196167 C10.225000381469727,-3.3949999809265137 10.204999923706055,3.3949999809265137 10.194999694824219,10.194999694824219 C3.384999990463257,10.265000343322754 -3.4149999618530273,10.21500015258789 -10.225000381469727,10.225000381469727 C-10.225000381469727,10.225000381469727 -10.225000381469727,-10.225000381469727 -10.225000381469727,-10.225000381469727z"></path></g><g opacity="1" transform="matrix(1,0,0,1,123.27999877929688,324.3450012207031)"><path fill="rgb(6,170,223)" fill-opacity="1" d=" M-10.380000114440918,-10.335000038146973 C-7.639999866485596,-10.345000267028809 -4.909999847412109,-10.354999542236328 -2.180000066757202,-10.354999542236328 C1.399999976158142,-4.664999961853027 5.510000228881836,0.6650000214576721 9.869999885559082,5.775000095367432 C10.130000114440918,7.275000095367432 10.359999656677246,8.795000076293945 10.5600004196167,10.3149995803833 C3.569999933242798,10.354999542236328 -3.4200000762939453,10.324999809265137 -10.40999984741211,10.335000038146973 C-10.520000457763672,3.444999933242798 -10.5600004196167,-3.4549999237060547 -10.380000114440918,-10.335000038146973z"></path></g><g opacity="1" transform="matrix(1,0,0,1,133.36000061035156,375.989990234375)"><path fill="rgb(6,170,223)" fill-opacity="1" d=" M0.2199999988079071,-20.770000457763672 C7.019999980926514,-20.760000228881836 13.819999694824219,-20.770000457763672 20.6200008392334,-20.760000228881836 C20.65999984741211,-7.110000133514404 20.639999389648438,20.770000457763672 20.639999389648438,20.770000457763672 C20.639999389648438,20.770000457763672 -20.56999969482422,20.770000457763672 -20.56999969482422,20.770000457763672 C-20.56999969482422,20.770000457763672 -20.65999984741211,6.869999885559082 -20.459999084472656,0.009999999776482582 C-13.569999694824219,0 -6.670000076293945,0.029999999329447746 0.2199999988079071,-0.009999999776482582 C0.20000000298023224,-6.929999828338623 0.20999999344348907,-13.850000381469727 0.2199999988079071,-20.770000457763672z"></path></g><g opacity="1" transform="matrix(1,0,0,1,81.7699966430664,386.3550109863281)"><path fill="rgb(6,170,223)" fill-opacity="1" d=" M-10.170000076293945,-10.345000267028809 C-3.369999885559082,-10.364999771118164 3.430000066757202,-10.354999542236328 10.229999542236328,-10.354999542236328 C10.229999542236328,-10.354999542236328 10.229999542236328,10.354999542236328 10.229999542236328,10.354999542236328 C3.4100000858306885,10.28499984741211 -3.4100000858306885,10.364999771118164 -10.229999542236328,10.28499984741211 C-10.170000076293945,3.4049999713897705 -10.229999542236328,-3.4749999046325684 -10.170000076293945,-10.345000267028809z"></path></g><g opacity="1" transform="matrix(1,0,0,1,102.38500213623047,412.9549865722656)"><path fill="rgb(6,170,223)" fill-opacity="1" d=" M-10.385000228881836,-16.2450008392334 C-3.4549999237060547,-16.174999237060547 3.4749999046325684,-16.225000381469727 10.404999732971191,-16.19499969482422 C10.385000228881836,-5.385000228881836 10.395000457763672,5.425000190734863 10.385000228881836,16.2450008392334 C3.244999885559082,12.244999885559082 -3.734999895095825,7.914999961853027 -10.404999732971191,3.1649999618530273 C-10.375,-3.305000066757202 -10.385000228881836,-9.774999618530273 -10.385000228881836,-16.2450008392334z"></path></g><g opacity="1" transform="matrix(1,0,0,1,309.2099914550781,386.385009765625)"><path fill="rgb(201,219,44)" fill-opacity="1" d=" M-10.399999618530273,-10.385000228881836 C-10.399999618530273,-10.385000228881836 10.399999618530273,-10.385000228881836 10.399999618530273,-10.385000228881836 C10.399999618530273,-10.385000228881836 10.399999618530273,10.385000228881836 10.399999618530273,10.385000228881836 C10.399999618530273,10.385000228881836 -10.399999618530273,10.385000228881836 -10.399999618530273,10.385000228881836 C-10.399999618530273,10.385000228881836 -10.399999618530273,-10.385000228881836 -10.399999618530273,-10.385000228881836z"></path></g><g opacity="1" transform="matrix(1,0,0,1,391.4230041503906,344.89599609375)"><path fill="rgb(201,219,44)" fill-opacity="1" d=" M-10.399999618530273,-10.385000228881836 C-10.399999618530273,-10.385000228881836 10.399999618530273,-10.385000228881836 10.399999618530273,-10.385000228881836 C10.399999618530273,-10.385000228881836 10.399999618530273,10.385000228881836 10.399999618530273,10.385000228881836 C10.399999618530273,10.385000228881836 -10.399999618530273,10.385000228881836 -10.399999618530273,10.385000228881836 C-10.399999618530273,10.385000228881836 -10.399999618530273,-10.385000228881836 -10.399999618530273,-10.385000228881836z"></path></g><g opacity="1" transform="matrix(1,0,0,1,309.1000061035156,444.7829895019531)"><path fill="rgb(201,219,44)" fill-opacity="1" d=" M-10.479999542236328,-6.802000045776367 C-10.479999542236328,-6.802000045776367 3.490000009536743,-6.813000202178955 10.479999542236328,-6.763000011444092 C10.470000267028809,-4.732999801635742 10.470000267028809,-2.693000078201294 10.479999542236328,-0.652999997138977 C3.690000057220459,2.316999912261963 -10.369999885559082,6.813000202178955 -10.369999885559082,6.813000202178955 C-10.369999885559082,6.813000202178955 -10.479999542236328,-6.802000045776367 -10.479999542236328,-6.802000045776367z"></path></g><g opacity="1" transform="matrix(1,0,0,1,133.38499450683594,418.1189880371094)"><path fill="rgb(201,219,44)" fill-opacity="1" d=" M-20.594999313354492,-21.358999252319336 C-20.594999313354492,-21.358999252319336 20.614999771118164,-21.358999252319336 20.614999771118164,-21.358999252319336 C20.614999771118164,-21.358999252319336 20.614999771118164,-0.9089999794960022 20.614999771118164,-0.9089999794960022 C13.805000305175781,-0.8880000114440918 6.994999885559082,-0.8989999890327454 0.1850000023841858,-0.8989999890327454 C0.1850000023841858,5.980999946594238 0.2150000035762787,21.360000610351562 0.2150000035762787,21.360000610351562 C0.2150000035762787,21.360000610351562 -1.5759999752044678,20.562000274658203 -2.7850000858306885,20.051000595092773 C-8.845000267028809,17.31100082397461 -14.8149995803833,14.35099983215332 -20.614999771118164,11.081000328063965 C-20.604999542236328,0.26100000739097595 -20.594999313354492,-21.358999252319336 -20.594999313354492,-21.358999252319336z"></path></g></g></g></svg>